<svg xmlns="http://www.w3.org/2000/svg" width="98.842" height="84.215" viewBox="0 0 98.842 84.215"><g transform="translate(0.738 0.514)"><path d="M77.51,14.621c-8.6,7.163-8.644,19.1-8.62,31.042,0,5.97,0,10.9,2.388,16.715.513,1.194,8.62,20.141,22.851,19.449,10.745-.513,17.694-11.939,20.117-18.959,1.922-5.576,1.516-9.969.7-17.718-1.66-16.034-2.937-28.26-12.2-33.429C95.168,7.482,84.16,9.105,77.51,14.621Z" transform="translate(-37.634 1.357)" fill="#f7d0b7" stroke="#231f20" stroke-miterlimit="10" stroke-width="1"/><path d="M92.153,51.76a3.4,3.4,0,0,0,.788,2.627c.585.5,1.194.358,1.576.907a2.472,2.472,0,0,1,0,2.388c-1.194,2.28-6.423,2.973-7.737.919a3.582,3.582,0,0,1,.394-3.677c.621-.919,1.421-.74,2.1-1.564a4.489,4.489,0,0,0,.513-3.582c-.86-5.325-6.567-9.253-5.767-11.939.931-3.128,10.578-4.3,12.2-1.445S92.225,47.593,92.153,51.76Z" transform="translate(-34.714 6.291)" fill="#e05468" stroke="#231f20" stroke-miterlimit="10" stroke-width="1"/><path d="M98.356,61.677c-.525,1.791-.43,3.044-1.755,4.262-2.818,2.591-9.121,2.388-12.464-.657A7.736,7.736,0,0,1,82,61.57a29.967,29.967,0,0,0,11.832,1.086A27.46,27.46,0,0,0,98.356,61.677Z" transform="translate(-35.091 11.488)" fill="#fff" stroke="#231f20" stroke-miterlimit="10" stroke-width="1"/><path d="M106.865,54.868c.1.155-1.648.919-3.582,2.639a15,15,0,0,0-2.543,2.985,11.318,11.318,0,0,0-1.325,2.865,27.459,27.459,0,0,1-4.573.979A29.967,29.967,0,0,1,83.07,63.25a20.464,20.464,0,0,0-3.331-6.435c-.227-.3-.442-.573-.669-.836-1.469-1.8-2.722-2.889-2.579-3.056s1.325,1.134,3.212,2.746c2.388,2.089,6.113,4.68,10.482,5.182,5.014.573,9.671-1.719,12.8-3.641C105.217,55.8,106.686,54.594,106.865,54.868Z" transform="translate(-36.162 9.809)" fill="#fff" stroke="#231f20" stroke-miterlimit="10" stroke-width="1"/><path d="M74.1,53.893c.346,1,3.415,1.851,4.907.1,1.1-1.3.872-3.462,0-3.94C77.57,49.273,73.631,52.544,74.1,53.893Z" transform="translate(-36.631 9.231)" fill="#f07273" stroke="#231f20" stroke-miterlimit="10" stroke-width="1"/><path d="M104.825,56.423c-.346,1-3.4,1.862-4.895.1-1.1-1.3-.872-3.462,0-3.94C101.351,51.8,105.291,55.074,104.825,56.423Z" transform="translate(-31.758 9.722)" fill="#f07273" stroke="#231f20" stroke-miterlimit="10" stroke-width="1"/><path d="M140.312,45.4c.143,7.629-7.844,14.984-13.384,13.622a6.626,6.626,0,0,1-2.9-1.671,5.647,5.647,0,0,1-1.409-4.012,5.456,5.456,0,0,1,2.065-4.023A6.2,6.2,0,0,0,122.14,53.4c-.191,2.185,1.3,3.021,1.194,4.525-.155,3.379-8.942,8.8-15.521,5.265-4.776-2.543-7.163-9.062-4.859-15.2l-.513,1.266c-1.039,2.543-2.388,5.516-3.128,6.829a15.521,15.521,0,0,1-7.832,6.59c-.072-.107,6.316-2.961,8.357-9.157a13.694,13.694,0,0,0,.525-5.1c-10.447,7.163-19.473,9.253-22.553,5.468A6.614,6.614,0,0,1,76.617,49.4c-.1,5.707-1.731,7.581-2.782,8.357C69.2,60.816,57.9,54.166,55.306,44.1c-2.818-10.984,5.337-22.959,9.3-22.553a9.754,9.754,0,0,1,4.059,2.268,15.592,15.592,0,0,1,2.627,3.009,9.862,9.862,0,0,0-2.841-3.582A27.994,27.994,0,0,0,65.7,21.489a5.384,5.384,0,0,1-.716-.74c-.967-1.194-1.815-3.021-1.337-3.582.322-.394,1.194-.251,1.516-.2a1.684,1.684,0,0,1,.466.119,30.314,30.314,0,0,0-4.943-1.194C55.15,15.316,49.8,19.208,43.5,23.8c-.287.2-.776.573-.788.561a75.7,75.7,0,0,1,6.077-4.62c3.116-2.113,4.68-3.176,6.1-3.641a17.288,17.288,0,0,1,9.79-.072c.561.155,1.015.31,1.325.418a3.343,3.343,0,0,1-1.266-.585,3.868,3.868,0,0,1-.836-.883c-.681-1.027-.358-4.358,1.48-6.937,2.746-3.82,7.605-4.274,9.229-3.224a3.283,3.283,0,0,1,1,1.075,3.582,3.582,0,0,1,.263,2.448,3.773,3.773,0,0,0,0-2.686c-.406-.883-1.194-.9-1.194-1.325-.131-1,3.582-3.033,8.178-3.7,5.253-.788,10.518.394,10.626,1.683,0,.179-.358.645-1.075,1.564A22.22,22.22,0,0,1,90.7,5.92L92.5,4.2l1.48-1.409a7.283,7.283,0,0,1,8.166-.478,8.357,8.357,0,0,1,3.582,5.3,12.855,12.855,0,0,1,0,2.388,5.468,5.468,0,0,1,.466-2.388c1.337-2.065,8.047-1.051,10.888,2.627.334.43,2.388,3.14,2.149,5.014a3.056,3.056,0,0,0,.239,1.994,2.483,2.483,0,0,0,.549.681l-.394-.788a3.379,3.379,0,0,1-.143-2.471c.585-1.039,3.438-.621,5.48,0,5.074,1.469,13.133,6.316,12.978,12.739-.072,3.212-2.221,6.734-3.988,6.722-.979,0-2.221-1.1-2.125-1.886,0-.525.74-.824.848-.872a2.018,2.018,0,0,1,1.97.37,2.018,2.018,0,0,0-2.233-.883,1.731,1.731,0,0,0-1.11,1.385c0,1.4,2.639,1.958,4.776,3.665A13.36,13.36,0,0,1,140.312,45.4Z" transform="translate(-42.71 -0.377)" fill="#4f4f4f" stroke="#231f20" stroke-miterlimit="10" stroke-width="1"/></g></svg>